<?xml version="1.0" standalone="no"?><!DOCTYPE svg PUBLIC "-//W3C//DTD SVG 1.1//EN" "http://www.w3.org/Graphics/SVG/1.1/DTD/svg11.dtd"><svg t="1725716961287" class="icon" viewBox="0 0 1024 1024" version="1.1" xmlns="http://www.w3.org/2000/svg" p-id="5430" xmlns:xlink="http://www.w3.org/1999/xlink" width="128" height="128"><path d="M182.857143 768m43.885714 0l716.8 0q43.885714 0 43.885714 43.885714l0 131.657143q0 43.885714-43.885714 43.885714l-716.8 0q-43.885714 0-43.885714-43.885714l0-131.657143q0-43.885714 43.885714-43.885714Z" p-id="5431" fill="#F06506"></path><path d="M80.457143 402.285714h570.514286a43.885714 43.885714 0 0 1 43.885714 43.885715v131.657142a43.885714 43.885714 0 0 1-43.885714 43.885715H80.457143a43.885714 43.885714 0 0 1-43.885714-43.885715V446.171429A43.885714 43.885714 0 0 1 80.457143 402.285714zM519.314286 36.571429h424.228571a43.885714 43.885714 0 0 1 43.885714 43.885714v131.657143a43.885714 43.885714 0 0 1-43.885714 43.885714H519.314286a43.885714 43.885714 0 0 1-43.885715-43.885714V80.457143a43.885714 43.885714 0 0 1 43.885715-43.885714z" p-id="5432" fill="#F06506"></path></svg>